HIERARCHY
ROOT Hips
{
	OFFSET -339.306915 540.749023 89.171944
	CHANNELS 6 Xposition Yposition Zposition Zrotation Yrotation Xrotation
	JOINT Spine
	{
		OFFSET 0.000000 2.080078 8.814247
		CHANNELS 6 Xposition Yposition Zposition Zrotation Yrotation Xrotation
		JOINT Spine1
		{
			OFFSET 0.000000 0.000000 8.844139
			CHANNELS 6 Xposition Yposition Zposition Zrotation Yrotation Xrotation
			JOINT Spine2
			{
				OFFSET 0.000000 0.000000 11.682266
				CHANNELS 6 Xposition Yposition Zposition Zrotation Yrotation Xrotation
				JOINT Spine3
				{
					OFFSET 0.000000 0.000000 11.746696
					CHANNELS 6 Xposition Yposition Zposition Zrotation Yrotation Xrotation
					JOINT Neck
					{
						OFFSET 0.000000 0.000000 17.658264
						CHANNELS 6 Xposition Yposition Zposition Zrotation Yrotation Xrotation
						JOINT Neck1
						{
							OFFSET 0.000000 0.000000 5.101517
							CHANNELS 6 Xposition Yposition Zposition Zrotation Yrotation Xrotation
							JOINT Head
							{
								OFFSET 0.000000 0.000000 5.101517
								CHANNELS 6 Xposition Yposition Zposition Zrotation Yrotation Xrotation
								JOINT HeadEnd
								{
									OFFSET 0.000000 0.000000 11.655090
									CHANNELS 6 Xposition Yposition Zposition Zrotation Yrotation Xrotation
									End Site
									{
										OFFSET 0.000000 0.000000 0.100006
									}
								}
							}
						}
					}
					JOINT RightShoulder
					{
						OFFSET -2.625397 0.000000 11.175217
						CHANNELS 6 Xposition Yposition Zposition Zrotation Yrotation Xrotation
						JOINT RightArm
						{
							OFFSET 0.000000 0.000000 10.434708
							CHANNELS 6 Xposition Yposition Zposition Zrotation Yrotation Xrotation
							JOINT RightForeArm
							{
								OFFSET 0.000000 0.000000 29.628418
								CHANNELS 6 Xposition Yposition Zposition Zrotation Yrotation Xrotation
								JOINT RightHand
								{
									OFFSET 0.000000 0.000000 22.857605
									CHANNELS 6 Xposition Yposition Zposition Zrotation Yrotation Xrotation
									JOINT RightHandThumb1
									{
										OFFSET -2.867310 -2.944275 3.959564
										CHANNELS 6 Xposition Yposition Zposition Zrotation Yrotation Xrotation
										JOINT RightHandThumb2
										{
											OFFSET 0.000000 0.000000 3.350403
											CHANNELS 6 Xposition Yposition Zposition Zrotation Yrotation Xrotation
											JOINT RightHandThumb3
											{
												OFFSET 0.000000 0.000000 3.756516
												CHANNELS 6 Xposition Yposition Zposition Zrotation Yrotation Xrotation
												JOINT RightHandThumb4
												{
													OFFSET 0.000000 0.000000 3.147339
													CHANNELS 6 Xposition Yposition Zposition Zrotation Yrotation Xrotation
													End Site
													{
														OFFSET 0.000000 0.000000 0.100006
													}
												}
											}
										}
									}
									JOINT RightHandIndex1
									{
										OFFSET -0.086761 -2.345276 10.030899
										CHANNELS 6 Xposition Yposition Zposition Zrotation Yrotation Xrotation
										JOINT RightHandIndex2
										{
											OFFSET 0.000000 0.000000 4.061096
											CHANNELS 6 Xposition Yposition Zposition Zrotation Yrotation Xrotation
											JOINT RightHandIndex3
											{
												OFFSET 0.000000 0.000000 3.248871
												CHANNELS 6 Xposition Yposition Zposition Zrotation Yrotation Xrotation
												JOINT RightHandIndex4
												{
													OFFSET 0.000000 0.000000 2.639709
													CHANNELS 6 Xposition Yposition Zposition Zrotation Yrotation Xrotation
													End Site
													{
														OFFSET 0.000000 0.000000 0.100006
													}
												}
											}
										}
									}
									JOINT RightHandMiddle1
									{
										OFFSET 0.104095 -0.006775 9.502945
										CHANNELS 6 Xposition Yposition Zposition Zrotation Yrotation Xrotation
										JOINT RightHandMiddle2
										{
											OFFSET 0.000000 0.000000 4.568726
											CHANNELS 6 Xposition Yposition Zposition Zrotation Yrotation Xrotation
											JOINT RightHandMiddle3
											{
												OFFSET 0.000000 0.000000 3.654984
												CHANNELS 6 Xposition Yposition Zposition Zrotation Yrotation Xrotation
												JOINT RightHandMiddle4
												{
													OFFSET 0.000000 0.000000 2.741241
													CHANNELS 6 Xposition Yposition Zposition Zrotation Yrotation Xrotation
													End Site
													{
														OFFSET 0.000000 0.000000 0.100006
													}
												}
											}
										}
									}
									JOINT RightHandRing1
									{
										OFFSET 0.086761 2.267456 8.921707
										CHANNELS 6 Xposition Yposition Zposition Zrotation Yrotation Xrotation
										JOINT RightHandRing2
										{
											OFFSET 0.000000 0.000000 4.061096
											CHANNELS 6 Xposition Yposition Zposition Zrotation Yrotation Xrotation
											JOINT RightHandRing3
											{
												OFFSET 0.000000 0.000000 3.654984
												CHANNELS 6 Xposition Yposition Zposition Zrotation Yrotation Xrotation
												JOINT RightHandRing4
												{
													OFFSET 0.000000 0.000000 2.741241
													CHANNELS 6 Xposition Yposition Zposition Zrotation Yrotation Xrotation
													End Site
													{
														OFFSET 0.000000 0.000000 0.100006
													}
												}
											}
										}
									}
									JOINT RightHandPinky1
									{
										OFFSET -0.173492 4.467224 7.976990
										CHANNELS 6 Xposition Yposition Zposition Zrotation Yrotation Xrotation
										JOINT RightHandPinky2
										{
											OFFSET 0.000000 0.000000 3.350403
											CHANNELS 6 Xposition Yposition Zposition Zrotation Yrotation Xrotation
											JOINT RightHandPinky3
											{
												OFFSET 0.000000 0.000000 2.842758
												CHANNELS 6 Xposition Yposition Zposition Zrotation Yrotation Xrotation
												JOINT RightHandPinky4
												{
													OFFSET 0.000000 0.000000 2.639709
													CHANNELS 6 Xposition Yposition Zposition Zrotation Yrotation Xrotation
													End Site
													{
														OFFSET 0.000000 0.000000 0.100006
													}
												}
											}
										}
									}
									JOINT RightForeArmEnd
									{
										OFFSET 0.000000 0.000000 0.000000
										CHANNELS 6 Xposition Yposition Zposition Zrotation Yrotation Xrotation
										End Site
										{
											OFFSET 0.000000 0.000000 0.100006
										}
									}
								}
								JOINT RightArmEnd
								{
									OFFSET 0.000000 0.000000 0.000000
									CHANNELS 6 Xposition Yposition Zposition Zrotation Yrotation Xrotation
									End Site
									{
										OFFSET 0.000000 0.000000 0.100006
									}
								}
							}
						}
					}
					JOINT LeftShoulder
					{
						OFFSET 2.625397 0.000000 11.175217
						CHANNELS 6 Xposition Yposition Zposition Zrotation Yrotation Xrotation
						JOINT LeftArm
						{
							OFFSET 0.000000 0.000000 10.813629
							CHANNELS 6 Xposition Yposition Zposition Zrotation Yrotation Xrotation
							JOINT LeftForeArm
							{
								OFFSET 0.000000 0.000000 28.724777
								CHANNELS 6 Xposition Yposition Zposition Zrotation Yrotation Xrotation
								JOINT LeftHand
								{
									OFFSET 0.644379 0.328857 25.716171
									CHANNELS 6 Xposition Yposition Zposition Zrotation Yrotation Xrotation
									JOINT LeftHandThumb1
									{
										OFFSET 2.867310 -2.944275 3.959564
										CHANNELS 6 Xposition Yposition Zposition Zrotation Yrotation Xrotation
										JOINT LeftHandThumb2
										{
											OFFSET 0.000000 0.000000 3.350403
											CHANNELS 6 Xposition Yposition Zposition Zrotation Yrotation Xrotation
											JOINT LeftHandThumb3
											{
												OFFSET 0.000000 0.000000 3.756516
												CHANNELS 6 Xposition Yposition Zposition Zrotation Yrotation Xrotation
												JOINT LeftHandThumb4
												{
													OFFSET 0.000000 0.000000 3.100006
													CHANNELS 6 Xposition Yposition Zposition Zrotation Yrotation Xrotation
													End Site
													{
														OFFSET 0.000000 0.000000 0.100006
													}
												}
											}
										}
									}
									JOINT LeftHandIndex1
									{
										OFFSET 0.086761 -2.345276 10.030899
										CHANNELS 6 Xposition Yposition Zposition Zrotation Yrotation Xrotation
										JOINT LeftHandIndex2
										{
											OFFSET 0.000000 0.000000 4.061096
											CHANNELS 6 Xposition Yposition Zposition Zrotation Yrotation Xrotation
											JOINT LeftHandIndex3
											{
												OFFSET 0.000000 0.000000 3.248871
												CHANNELS 6 Xposition Yposition Zposition Zrotation Yrotation Xrotation
												JOINT LeftHandIndex4
												{
													OFFSET 0.000000 0.000000 2.639709
													CHANNELS 6 Xposition Yposition Zposition Zrotation Yrotation Xrotation
													End Site
													{
														OFFSET 0.000000 0.000000 0.100006
													}
												}
											}
										}
									}
									JOINT LeftHandMiddle1
									{
										OFFSET -0.104095 -0.006775 9.502945
										CHANNELS 6 Xposition Yposition Zposition Zrotation Yrotation Xrotation
										JOINT LeftHandMiddle2
										{
											OFFSET 0.000000 0.000000 4.568726
											CHANNELS 6 Xposition Yposition Zposition Zrotation Yrotation Xrotation
											JOINT LeftHandMiddle3
											{
												OFFSET 0.000000 0.000000 3.654984
												CHANNELS 6 Xposition Yposition Zposition Zrotation Yrotation Xrotation
												JOINT LeftHandMiddle4
												{
													OFFSET 0.000000 0.000000 2.741241
													CHANNELS 6 Xposition Yposition Zposition Zrotation Yrotation Xrotation
													End Site
													{
														OFFSET 0.000000 0.000000 0.100006
													}
												}
											}
										}
									}
									JOINT LeftHandRing1
									{
										OFFSET -0.086761 2.267456 8.921707
										CHANNELS 6 Xposition Yposition Zposition Zrotation Yrotation Xrotation
										JOINT LeftHandRing2
										{
											OFFSET 0.000000 0.000000 4.061096
											CHANNELS 6 Xposition Yposition Zposition Zrotation Yrotation Xrotation
											JOINT LeftHandRing3
											{
												OFFSET 0.000000 0.000000 3.654984
												CHANNELS 6 Xposition Yposition Zposition Zrotation Yrotation Xrotation
												JOINT LeftHandRing4
												{
													OFFSET 0.000000 0.000000 2.741241
													CHANNELS 6 Xposition Yposition Zposition Zrotation Yrotation Xrotation
													End Site
													{
														OFFSET 0.000000 0.000000 0.100006
													}
												}
											}
										}
									}
									JOINT LeftHandPinky1
									{
										OFFSET 0.173492 4.467224 7.976990
										CHANNELS 6 Xposition Yposition Zposition Zrotation Yrotation Xrotation
										JOINT LeftHandPinky2
										{
											OFFSET 0.000000 0.000000 3.350403
											CHANNELS 6 Xposition Yposition Zposition Zrotation Yrotation Xrotation
											JOINT LeftHandPinky3
											{
												OFFSET 0.000000 0.000000 2.842758
												CHANNELS 6 Xposition Yposition Zposition Zrotation Yrotation Xrotation
												JOINT LeftHandPinky4
												{
													OFFSET 0.000000 0.000000 2.639709
													CHANNELS 6 Xposition Yposition Zposition Zrotation Yrotation Xrotation
													End Site
													{
														OFFSET 0.000000 0.000000 0.100006
													}
												}
											}
										}
									}
									JOINT LeftForeArmEnd
									{
										OFFSET 0.000000 0.000000 0.000000
										CHANNELS 6 Xposition Yposition Zposition Zrotation Yrotation Xrotation
										End Site
										{
											OFFSET 0.000000 0.000000 0.100006
										}
									}
								}
								JOINT LeftArmEnd
								{
									OFFSET 0.000000 0.000000 0.000000
									CHANNELS 6 Xposition Yposition Zposition Zrotation Yrotation Xrotation
									End Site
									{
										OFFSET 0.000000 0.000000 0.100006
									}
								}
							}
						}
					}
				}
			}
		}
	}
	JOINT RightUpLeg
	{
		OFFSET -11.289948 0.000000 0.000000
		CHANNELS 6 Xposition Yposition Zposition Zrotation Yrotation Xrotation
		JOINT RightLeg
		{
			OFFSET 0.000000 0.000000 -38.200329
			CHANNELS 6 Xposition Yposition Zposition Zrotation Yrotation Xrotation
			JOINT RightFoot
			{
				OFFSET 0.000000 0.000000 -39.900856
				CHANNELS 6 Xposition Yposition Zposition Zrotation Yrotation Xrotation
				JOINT RightToeBase
				{
					OFFSET 0.000000 -15.261658 0.000001
					CHANNELS 6 Xposition Yposition Zposition Zrotation Yrotation Xrotation
					JOINT RightToeBaseEnd
					{
						OFFSET 0.000000 -7.370728 0.000001
						CHANNELS 6 Xposition Yposition Zposition Zrotation Yrotation Xrotation
						End Site
						{
							OFFSET 0.000000 0.000000 0.100000
						}
					}
				}
				JOINT RightLegEnd
				{
					OFFSET 0.000000 0.000000 0.000000
					CHANNELS 6 Xposition Yposition Zposition Zrotation Yrotation Xrotation
					End Site
					{
						OFFSET 0.000000 0.000000 0.100000
					}
				}
			}
			JOINT RightUpLegEnd
			{
				OFFSET 0.000000 0.000000 0.000000
				CHANNELS 6 Xposition Yposition Zposition Zrotation Yrotation Xrotation
				End Site
				{
					OFFSET 0.000000 0.000000 0.099998
				}
			}
		}
	}
	JOINT LeftUpLeg
	{
		OFFSET 11.315674 0.000000 0.000000
		CHANNELS 6 Xposition Yposition Zposition Zrotation Yrotation Xrotation
		JOINT LeftLeg
		{
			OFFSET 0.000000 0.000000 -38.200329
			CHANNELS 6 Xposition Yposition Zposition Zrotation Yrotation Xrotation
			JOINT LeftFoot
			{
				OFFSET 0.000000 0.000000 -39.900856
				CHANNELS 6 Xposition Yposition Zposition Zrotation Yrotation Xrotation
				JOINT LeftToeBase
				{
					OFFSET 0.000000 -15.261658 0.000001
					CHANNELS 6 Xposition Yposition Zposition Zrotation Yrotation Xrotation
					JOINT LeftToeBaseEnd
					{
						OFFSET 0.000000 -7.539978 0.000001
						CHANNELS 6 Xposition Yposition Zposition Zrotation Yrotation Xrotation
						End Site
						{
							OFFSET 0.000000 0.000000 0.100000
						}
					}
				}
				JOINT LeftLegEnd
				{
					OFFSET 0.000000 0.000000 0.000000
					CHANNELS 6 Xposition Yposition Zposition Zrotation Yrotation Xrotation
					End Site
					{
						OFFSET 0.000000 0.000000 0.100000
					}
				}
			}
			JOINT LeftUpLegEnd
			{
				OFFSET 0.000000 0.000000 0.000000
				CHANNELS 6 Xposition Yposition Zposition Zrotation Yrotation Xrotation
				End Site
				{
					OFFSET 0.000000 0.000000 0.099998
				}
			}
		}
	}
}
MOTION
Frames: 2
Frame Time: 0.016667
17.879150 -47.718079 88.193153 -5.038122 -1.138671 -14.713341 -0.000008 2.080102 8.814237 0.723604 2.607697 7.715324 -0.000008 0.000012 8.844151 0.237491 0.083734 1.946355 0.000007 0.000010 11.682280 2.793435 -0.414569 10.506112 -0.000035 -0.000003 11.746691 0.952080 -1.324771 8.967930 0.000009 -0.000000 17.658312 1.072301 3.259945 6.375337 0.000001 -0.000007 5.101552 -1.305209 0.616413 -3.705745 0.000006 0.000002 5.101552 0.797239 -0.544478 -15.815735 0.000001 0.000000 11.655091 -0.000000 0.000000 0.000000 -2.625411 -0.000013 11.175234 10.870234 -87.329474 0.157757 -0.000001 -0.000013 10.434723 -30.945962 -67.717262 33.764357 -0.000004 -0.000023 29.628422 5.381943 0.181691 10.863480 -0.000031 0.000004 22.857616 22.575003 26.001987 -5.140697 -2.867347 -2.944275 3.959534 32.858107 -27.566930 37.131398 0.000000 -0.000015 3.350410 -35.329580 9.952406 -59.417291 0.000008 0.000031 3.756531 -23.610260 10.970588 -40.645728 0.000011 0.000006 3.147339 -0.000002 -0.000003 -0.000000 -0.086768 -2.345357 10.030909 43.208706 -92.359218 -53.176803 0.000015 -0.000027 4.061104 10.033276 -64.033222 -16.772706 -0.000015 0.000008 3.248886 10.533250 -64.033181 -16.772667 -0.000002 0.000002 2.639709 -0.000000 -0.000000 -0.000000 0.104102 -0.006777 9.502920 77.670589 -96.661923 -82.473865 0.000004 0.000044 4.568722 3.364523 -64.031439 -6.177103 0.000002 0.000010 3.654989 3.864495 -64.031487 -6.177076 -0.000007 -0.000006 2.741269 0.000001 -0.000000 -0.000000 0.086765 2.267411 8.921700 56.761563 -107.249734 -55.333985 -0.000002 -0.000002 4.061113 -5.485139 -69.385283 9.357464 0.000002 -0.000006 3.654978 -6.485166 -69.385317 9.357489 -0.000001 -0.000002 2.741248 0.000000 -0.000001 0.000001 -0.173489 4.467175 7.976994 65.364671 -115.091570 -56.151880 -0.000015 -0.000023 3.350418 -18.781120 -68.759146 30.005585 -0.000023 -0.000027 2.842751 -20.781095 -68.759139 30.005574 -0.000002 0.000006 2.639726 -0.000000 0.000001 -0.000000 -0.000002 -0.000001 -0.000001 0.000000 -0.000000 -0.000000 0.000007 -0.000003 0.000025 0.000001 0.000001 0.000001 2.625385 -0.000013 11.175214 -12.828868 82.466878 -0.128517 0.000011 0.000005 10.813679 53.015549 64.743302 48.845411 0.000010 -0.000008 28.724768 -16.723670 3.322975 24.030009 0.644360 0.328850 25.716187 -7.832650 -13.229025 -11.547400 2.867319 -2.944260 3.959549 -31.923170 24.086305 41.806089 0.000023 0.000015 3.350441 27.861685 -11.040857 -47.423892 0.000000 -0.000008 3.756546 18.420124 -10.206094 -32.315035 -0.000005 0.000005 3.100024 -0.000001 0.000001 0.000001 0.086739 -2.345289 10.030891 45.967894 64.651750 37.635551 0.000019 -0.000002 4.061134 3.798884 49.204601 9.372041 0.000031 0.000011 3.248936 4.298890 49.204611 9.372047 -0.000008 -0.000006 2.639722 0.000001 -0.000001 -0.000000 -0.104092 -0.006776 9.502937 31.398731 64.850010 28.186157 0.000002 -0.000017 4.568724 0.966377 47.805734 3.310371 0.000016 0.000018 3.654995 1.466871 47.805840 3.310922 0.000008 -0.000002 2.741285 0.000000 -0.000003 -0.000002 -0.086740 2.267456 8.921707 14.587156 70.015381 18.765706 0.000011 -0.000002 4.061110 -0.862923 49.218483 -4.065892 0.000013 0.000030 3.654995 -1.862918 49.218418 -4.065889 0.000006 -0.000000 2.741242 0.000000 0.000001 0.000001 0.173492 4.467222 7.977012 -10.320327 70.464774 2.046376 -0.000027 0.000010 3.350403 -3.161005 46.722640 -11.913487 -0.000008 -0.000013 2.842728 -5.161003 46.722568 -11.913475 -0.000003 0.000056 2.639732 0.000000 0.000000 -0.000001 0.000023 -0.000000 0.000035 -0.000000 0.000000 0.000000 -0.000011 -0.000011 0.000035 0.000002 0.000004 -0.000002 -11.289942 -0.000015 0.000019 3.867368 1.258186 10.074609 0.000002 0.000041 -38.200310 -0.272585 0.093776 19.335842 0.000004 0.000002 -39.900829 -9.145141 2.258452 12.239839 0.000005 -15.261637 0.000007 0.246345 0.863293 -20.705216 -0.000001 -7.370665 -0.000002 -0.000000 0.000000 0.000000 0.000002 0.000061 0.000001 0.000000 0.000000 -0.000000 0.000001 0.000001 -0.000003 -0.000000 -0.000000 0.000000 11.315660 0.000029 0.000026 7.905164 0.385311 16.190467 -0.000029 0.000033 -38.200310 0.521872 -0.063845 7.266347 -0.000012 0.000004 -39.900875 4.603678 -2.132406 16.576697 -0.000012 -15.261626 -0.000011 -0.684970 -0.790575 -18.178434 -0.000003 -7.539974 -0.000000 -0.000001 0.000000 0.000000 -0.000002 -0.000004 0.000000 0.000001 -0.000000 0.000001 -0.000000 0.000061 -0.000006 -0.000000 -0.000000 -0.000001 
17.869080 -47.822021 88.158279 -5.133870 -1.108242 -14.865449 0.000014 2.080158 8.814257 0.720517 2.611480 7.755939 -0.000013 0.000014 8.844161 0.220181 0.073372 1.847915 0.000010 -0.000010 11.682275 2.691338 -0.454640 10.621614 -0.000015 -0.000004 11.746700 0.912617 -1.336992 8.942504 0.000011 -0.000014 17.658274 1.184547 3.448550 6.517729 0.000000 -0.000025 5.101522 -1.182173 0.609182 -3.644815 -0.000006 0.000026 5.101545 0.804099 -0.476809 -16.018467 0.000001 -0.000000 11.655120 0.000000 -0.000000 -0.000000 -2.625417 0.000009 11.175204 10.731968 -87.734101 0.172059 -0.000037 -0.000027 10.434708 -30.109202 -67.377535 33.106064 -0.000011 -0.000023 29.628456 5.760194 0.229625 10.748224 0.000015 -0.000046 22.857590 22.514371 25.350495 -4.924958 -2.867296 -2.944244 3.959564 32.858100 -27.566918 37.131401 0.000008 0.000000 3.350384 -35.329587 9.952391 -59.417305 0.000000 0.000023 3.756508 -23.610260 10.970607 -40.645708 -0.000002 0.000002 3.147335 -0.000000 0.000000 0.000001 -0.086753 -2.345276 10.030921 55.016901 -91.984821 -65.231653 0.000015 -0.000015 4.061096 9.790891 -63.675777 -16.502680 -0.000011 -0.000006 3.248856 10.290869 -63.675770 -16.502659 -0.000004 0.000003 2.639726 -0.000001 -0.000000 0.000000 0.104093 -0.006760 9.502945 82.697834 -96.563398 -87.704608 0.000034 -0.000010 4.568743 3.267883 -63.634250 -6.069427 -0.000007 -0.000030 3.654974 3.767849 -63.634161 -6.069387 0.000006 -0.000001 2.741231 0.000000 0.000000 0.000000 0.086750 2.267484 8.921696 58.515262 -106.929323 -57.288816 -0.000023 0.000006 4.061092 -5.287185 -68.953061 9.145660 -0.000008 0.000010 3.654970 -6.287168 -68.953089 9.145651 -0.000001 -0.000002 2.741256 -0.000000 -0.000002 -0.000000 -0.173489 4.467243 7.976982 66.700458 -114.846885 -57.747856 0.000000 0.000011 3.350418 -18.144170 -68.350249 29.321264 -0.000023 -0.000023 2.842773 -20.144115 -68.350202 29.321206 -0.000012 -0.000013 2.639732 0.000001 0.000002 0.000001 0.000011 -0.000001 -0.000003 0.000000 0.000002 0.000000 -0.000007 0.000000 0.000000 -0.000000 0.000001 -0.000001 2.625374 -0.000002 11.175222 -12.764491 82.792329 -0.128672 -0.000008 0.000005 10.813599 53.125488 64.402468 48.702975 0.000010 -0.000023 28.724735 -16.876844 3.347513 24.223541 0.644371 0.328762 25.716179 -7.671423 -13.096497 -11.412619 2.867311 -2.944260 3.959579 -31.923317 24.086097 41.805833 0.000000 0.000031 3.350388 27.861682 -11.040896 -47.423841 -0.000008 0.000015 3.756531 18.420149 -10.206000 -32.314762 -0.000000 -0.000002 3.100048 -0.000001 0.000001 0.000001 0.086716 -2.345287 10.030930 45.568334 64.486473 37.228923 0.000004 -0.000016 4.061131 3.757217 49.038849 9.316927 0.000048 -0.000010 3.248913 4.257213 49.038846 9.316927 -0.000013 0.000011 2.639723 -0.000001 -0.000004 0.000001 -0.104092 -0.006779 9.502968 31.078419 64.635562 27.850749 0.000010 0.000008 4.568747 0.953766 47.626711 3.293321 -0.000006 0.000000 3.654997 1.453769 47.626701 3.293321 0.000001 0.000007 2.741269 -0.000001 -0.000002 -0.000002 -0.086773 2.267447 8.921707 14.309618 69.702046 18.481182 0.000002 0.000023 4.061090 -0.838450 48.992158 -4.033528 0.000035 -0.000010 3.655006 -1.838447 48.992179 -4.033520 0.000003 -0.000009 2.741273 0.000001 -0.000004 -0.000001 0.173515 4.467220 7.977003 -10.207143 70.090472 2.146195 -0.000015 -0.000015 3.350403 -3.085895 46.476920 -11.810118 0.000019 -0.000015 2.842735 -5.085909 46.476961 -11.810130 -0.000004 0.000003 2.639727 0.000000 -0.000005 0.000002 0.000004 0.000003 0.000027 -0.000001 -0.000003 -0.000000 -0.000004 -0.000070 0.000007 0.000001 -0.000002 0.000000 -11.289940 -0.000016 0.000014 3.936118 1.195650 10.271145 -0.000000 0.000038 -38.200317 -0.273346 0.094765 19.376154 -0.000002 0.000005 -39.900837 -9.138193 2.245551 12.099614 0.000015 -15.261641 0.000002 0.257443 0.862523 -20.607319 0.000003 -7.370655 0.000000 -0.000002 0.000000 -0.000000 -0.000000 0.000062 0.000001 -0.000000 -0.000000 0.000002 -0.000000 -0.000001 -0.000001 0.000000 0.000000 0.000001 11.315641 0.000048 0.000000 7.904047 0.331310 16.436370 -0.000019 0.000055 -38.200317 0.521945 -0.063568 7.263988 -0.000011 0.000018 -39.900867 4.703698 -2.099815 16.364865 0.000014 -15.261623 0.000013 -0.694059 -0.796814 -18.045594 -0.000004 -7.539916 0.000001 -0.000000 -0.000000 -0.000000 0.000000 -0.000002 0.000002 0.000000 -0.000000 0.000003 -0.000004 0.000001 -0.000004 -0.000000 -0.000000 -0.000000 
